<svg xmlns="http://www.w3.org/2000/svg" width="1104" height="404" viewBox="0 0 1104 404" font-family="ui-sans-serif, -apple-system, 'Segoe UI', Roboto, sans-serif"><defs><filter id="card" x="-20%" y="-20%" width="140%" height="140%"><feDropShadow dx="0" dy="1" stdDeviation="2.5" flood-color="#0f172a" flood-opacity="0.10"/></filter></defs><rect width="1104" height="404" fill="#f6f7f9"/><g transform="translate(20,20)"><rect width="788" height="364" rx="14" fill="#eef1f5" stroke="#dbe1ea"/><text x="20" y="27" font-size="11" font-weight="700" fill="#64748b" font-family="ui-sans-serif, -apple-system, 'Segoe UI', Roboto, sans-serif" text-anchor="start" letter-spacing="1.2">ROOT</text><g transform="translate(18,52)"><rect width="518" height="294" rx="12" fill="#ffffff" stroke="#e2e8f0" filter="url(#card)"/><path d="M0 12 Q0 0 12 0 H506 Q518 0 518 12 V42 H0 Z" fill="#0891b2" fill-opacity="0.07"/><rect x="10" y="14" width="4" height="26" rx="2" fill="#16a34a"/><circle cx="26" cy="21" r="4" fill="#0891b2"/><text x="38" y="25" font-size="13" font-weight="650" fill="#0f172a" font-family="ui-sans-serif, -apple-system, 'Segoe UI', Roboto, sans-serif" text-anchor="start" letter-spacing="0">main</text><text x="502" y="25" font-size="11" font-weight="500" fill="#64748b" font-family="ui-monospace, 'SF Mono', 'JetBrains Mono', Menlo, monospace" text-anchor="end" letter-spacing="0">aws_vpc</text><g transform="translate(18,52)"><rect width="248" height="136" rx="12" fill="#ffffff" stroke="#e2e8f0" filter="url(#card)"/><path d="M0 12 Q0 0 12 0 H236 Q248 0 248 12 V42 H0 Z" fill="#0891b2" fill-opacity="0.07"/><rect x="10" y="14" width="4" height="26" rx="2" fill="#16a34a"/><circle cx="26" cy="21" r="4" fill="#0891b2"/><text x="38" y="25" font-size="13" font-weight="650" fill="#0f172a" font-family="ui-sans-serif, -apple-system, 'Segoe UI', Roboto, sans-serif" text-anchor="start" letter-spacing="0">public</text><text x="232" y="25" font-size="11" font-weight="500" fill="#64748b" font-family="ui-monospace, 'SF Mono', 'JetBrains Mono', Menlo, monospace" text-anchor="end" letter-spacing="0">aws_subnet</text><g transform="translate(18,52)"><rect width="212" height="66" rx="12" fill="#ffffff" stroke="#e2e8f0" filter="url(#card)"/><rect x="10" y="14" width="4" height="38" rx="2" fill="#16a34a"/><circle cx="26" cy="25" r="4" fill="#7c3aed"/><text x="38" y="29" font-size="14" font-weight="650" fill="#0f172a" font-family="ui-sans-serif, -apple-system, 'Segoe UI', Roboto, sans-serif" text-anchor="start" letter-spacing="0">web</text><text x="26" y="49" font-size="11" font-weight="500" fill="#64748b" font-family="ui-monospace, 'SF Mono', 'JetBrains Mono', Menlo, monospace" text-anchor="start" letter-spacing="0">aws_instance</text><text x="196" y="29" font-size="10" font-weight="700" fill="#16a34a" font-family="ui-sans-serif, -apple-system, 'Segoe UI', Roboto, sans-serif" text-anchor="end" letter-spacing="0.6">CREATE</text></g></g><g transform="translate(288,52)"><rect width="212" height="66" rx="12" fill="#ffffff" stroke="#e2e8f0" filter="url(#card)"/><rect x="10" y="14" width="4" height="38" rx="2" fill="#d97706"/><circle cx="26" cy="25" r="4" fill="#475569"/><text x="38" y="29" font-size="14" font-weight="650" fill="#0f172a" font-family="ui-sans-serif, -apple-system, 'Segoe UI', Roboto, sans-serif" text-anchor="start" letter-spacing="0">web</text><text x="26" y="49" font-size="11" font-weight="500" fill="#64748b" font-family="ui-monospace, 'SF Mono', 'JetBrains Mono', Menlo, monospace" text-anchor="start" letter-spacing="0">aws_security_group</text><text x="196" y="29" font-size="10" font-weight="700" fill="#d97706" font-family="ui-sans-serif, -apple-system, 'Segoe UI', Roboto, sans-serif" text-anchor="end" letter-spacing="0.6">UPDATE</text></g><g transform="translate(18,210)"><rect width="212" height="66" rx="12" fill="#ffffff" stroke="#e2e8f0" filter="url(#card)"/><rect x="10" y="14" width="4" height="38" rx="2" fill="#d97706"/><circle cx="26" cy="25" r="4" fill="#4f46e5"/><text x="38" y="29" font-size="14" font-weight="650" fill="#0f172a" font-family="ui-sans-serif, -apple-system, 'Segoe UI', Roboto, sans-serif" text-anchor="start" letter-spacing="0">main</text><text x="26" y="49" font-size="11" font-weight="500" fill="#64748b" font-family="ui-monospace, 'SF Mono', 'JetBrains Mono', Menlo, monospace" text-anchor="start" letter-spacing="0">aws_db_instance</text><text x="196" y="29" font-size="10" font-weight="700" fill="#d97706" font-family="ui-sans-serif, -apple-system, 'Segoe UI', Roboto, sans-serif" text-anchor="end" letter-spacing="0.6">REPLACE</text></g></g><g transform="translate(558,52)"><rect width="212" height="66" rx="12" fill="#ffffff" stroke="#e2e8f0" filter="url(#card)"/><rect x="10" y="14" width="4" height="38" rx="2" fill="#dc2626"/><circle cx="26" cy="25" r="4" fill="#0d9488"/><text x="38" y="29" font-size="14" font-weight="650" fill="#0f172a" font-family="ui-sans-serif, -apple-system, 'Segoe UI', Roboto, sans-serif" text-anchor="start" letter-spacing="0">legacy</text><text x="26" y="49" font-size="11" font-weight="500" fill="#64748b" font-family="ui-monospace, 'SF Mono', 'JetBrains Mono', Menlo, monospace" text-anchor="start" letter-spacing="0">aws_s3_bucket</text><text x="196" y="29" font-size="10" font-weight="700" fill="#dc2626" font-family="ui-sans-serif, -apple-system, 'Segoe UI', Roboto, sans-serif" text-anchor="end" letter-spacing="0.6">DELETE</text></g></g><g transform="translate(836,20)"><rect width="248" height="136" rx="14" fill="#eef1f5" stroke="#dbe1ea"/><text x="20" y="27" font-size="11" font-weight="700" fill="#64748b" font-family="ui-sans-serif, -apple-system, 'Segoe UI', Roboto, sans-serif" text-anchor="start" letter-spacing="1.2">MODULE.NETWORKING</text><g transform="translate(18,52)"><rect width="212" height="66" rx="12" fill="#ffffff" stroke="#e2e8f0" filter="url(#card)"/><rect x="10" y="14" width="4" height="38" rx="2" fill="#16a34a"/><circle cx="26" cy="25" r="4" fill="#0891b2"/><text x="38" y="29" font-size="14" font-weight="650" fill="#0f172a" font-family="ui-sans-serif, -apple-system, 'Segoe UI', Roboto, sans-serif" text-anchor="start" letter-spacing="0">main</text><text x="26" y="49" font-size="11" font-weight="500" fill="#64748b" font-family="ui-monospace, 'SF Mono', 'JetBrains Mono', Menlo, monospace" text-anchor="start" letter-spacing="0">aws_nat_gateway</text><text x="196" y="29" font-size="10" font-weight="700" fill="#16a34a" font-family="ui-sans-serif, -apple-system, 'Segoe UI', Roboto, sans-serif" text-anchor="end" letter-spacing="0.6">CREATE</text></g></g></svg>