<svg xmlns="http://www.w3.org/2000/svg" width="1062" height="608" viewBox="0 0 1062 608" font-family="ui-sans-serif, -apple-system, 'Segoe UI', Roboto, sans-serif"><defs><filter id="card" x="-20%" y="-20%" width="140%" height="140%"><feDropShadow dx="0" dy="1" stdDeviation="2.5" flood-color="#000000" flood-opacity="0.10"/></filter></defs><rect width="1062" height="608" fill="#0f1623"/><g transform="translate(20,20)"><rect width="1022" height="522" rx="14" fill="#151d2c" stroke="#2b3852"/><text x="20" y="27" font-size="11" font-weight="700" fill="#94a3b8" font-family="ui-sans-serif, -apple-system, 'Segoe UI', Roboto, sans-serif" text-anchor="start" letter-spacing="1.2">ROOT</text><g transform="translate(18,52)"><rect width="752" height="452" rx="12" fill="#1b2435" stroke="#2b3852" filter="url(#card)"/><path d="M0 12 Q0 0 12 0 H740 Q752 0 752 12 V42 H0 Z" fill="#22d3ee" fill-opacity="0.16"/><rect x="10" y="11" width="4" height="20" rx="2" fill="#34d399"/><g transform="translate(16,10) scale(0.9166666666666666)" fill="none" stroke="#22d3ee" stroke-width="1.7" stroke-linecap="round" stroke-linejoin="round"><path d='M9 4 H6 A2 2 0 0 0 4 6 V9 M15 4 H18 A2 2 0 0 1 20 6 V9 M9 20 H6 A2 2 0 0 1 4 18 V15 M15 20 H18 A2 2 0 0 0 20 18 V15'/></g><text x="42" y="25" font-size="13" font-weight="650" fill="#e6edf6" font-family="ui-sans-serif, -apple-system, 'Segoe UI', Roboto, sans-serif" text-anchor="start" letter-spacing="0">main</text><text x="736" y="25" font-size="11" font-weight="500" fill="#94a3b8" font-family="ui-monospace, 'SF Mono', 'JetBrains Mono', Menlo, monospace" text-anchor="end" letter-spacing="0">aws_vpc</text><g transform="translate(18,52)"><rect width="212" height="66" rx="12" fill="#1b2435" stroke="#2b3852" filter="url(#card)"/><rect x="10" y="14" width="4" height="38" rx="2" fill="#34d399"/><g transform="translate(14,21) scale(1)" fill="none" stroke="#22d3ee" stroke-width="1.7" stroke-linecap="round" stroke-linejoin="round"><circle cx='12' cy='12' r='7.5'/><path d='M4.5 12 H19.5'/><path d='M12 4.5 C8 8 8 16 12 19.5 C16 16 16 8 12 4.5 Z'/></g><text x="46" y="29" font-size="14" font-weight="650" fill="#e6edf6" font-family="ui-sans-serif, -apple-system, 'Segoe UI', Roboto, sans-serif" text-anchor="start" letter-spacing="0">gw</text><text x="46" y="48" font-size="11" font-weight="500" fill="#94a3b8" font-family="ui-monospace, 'SF Mono', 'JetBrains Mono', Menlo, monospace" text-anchor="start" letter-spacing="0">aws_internet_gateway</text><text x="196" y="29" font-size="10" font-weight="700" fill="#34d399" font-family="ui-sans-serif, -apple-system, 'Segoe UI', Roboto, sans-serif" text-anchor="end" letter-spacing="0.6">CREATE</text></g><g transform="translate(252,52)"><rect width="482" height="224" rx="12" fill="#1b2435" stroke="#2b3852" filter="url(#card)"/><path d="M0 12 Q0 0 12 0 H470 Q482 0 482 12 V42 H0 Z" fill="#22d3ee" fill-opacity="0.16"/><rect x="10" y="11" width="4" height="20" rx="2" fill="#34d399"/><g transform="translate(16,10) scale(0.9166666666666666)" fill="none" stroke="#22d3ee" stroke-width="1.7" stroke-linecap="round" stroke-linejoin="round"><rect x='5' y='5' width='14' height='14' rx='2'/><path d='M5 12 H19 M12 5 V19'/></g><text x="42" y="25" font-size="13" font-weight="650" fill="#e6edf6" font-family="ui-sans-serif, -apple-system, 'Segoe UI', Roboto, sans-serif" text-anchor="start" letter-spacing="0">public</text><text x="466" y="25" font-size="11" font-weight="500" fill="#94a3b8" font-family="ui-monospace, 'SF Mono', 'JetBrains Mono', Menlo, monospace" text-anchor="end" letter-spacing="0">aws_subnet</text><g transform="translate(18,52)"><rect width="212" height="66" rx="12" fill="#1b2435" stroke="#2b3852" filter="url(#card)"/><rect x="10" y="14" width="4" height="38" rx="2" fill="#34d399"/><g transform="translate(14,21) scale(1)" fill="none" stroke="#22d3ee" stroke-width="1.7" stroke-linecap="round" stroke-linejoin="round"><path d='M12 21 C12 21 5.5 14.5 5.5 9.5 A6.5 6.5 0 0 1 18.5 9.5 C18.5 14.5 12 21 12 21 Z'/><circle cx='12' cy='9.5' r='2.3'/></g><text x="46" y="29" font-size="14" font-weight="650" fill="#e6edf6" font-family="ui-sans-serif, -apple-system, 'Segoe UI', Roboto, sans-serif" text-anchor="start" letter-spacing="0">nat</text><text x="46" y="48" font-size="11" font-weight="500" fill="#94a3b8" font-family="ui-monospace, 'SF Mono', 'JetBrains Mono', Menlo, monospace" text-anchor="start" letter-spacing="0">aws_eip</text><text x="196" y="29" font-size="10" font-weight="700" fill="#34d399" font-family="ui-sans-serif, -apple-system, 'Segoe UI', Roboto, sans-serif" text-anchor="end" letter-spacing="0.6">CREATE</text></g><g transform="translate(252,52)"><rect width="212" height="66" rx="12" fill="#1b2435" stroke="#2b3852" filter="url(#card)"/><rect x="10" y="14" width="4" height="38" rx="2" fill="#34d399"/><g transform="translate(14,21) scale(1)" fill="none" stroke="#22d3ee" stroke-width="1.7" stroke-linecap="round" stroke-linejoin="round"><path d='M5 9 H15 M12 6 L15 9 L12 12 M19 15 H9 M12 18 L9 15 L12 12'/></g><text x="46" y="29" font-size="14" font-weight="650" fill="#e6edf6" font-family="ui-sans-serif, -apple-system, 'Segoe UI', Roboto, sans-serif" text-anchor="start" letter-spacing="0">nat</text><text x="46" y="48" font-size="11" font-weight="500" fill="#94a3b8" font-family="ui-monospace, 'SF Mono', 'JetBrains Mono', Menlo, monospace" text-anchor="start" letter-spacing="0">aws_nat_gateway</text><text x="196" y="29" font-size="10" font-weight="700" fill="#34d399" font-family="ui-sans-serif, -apple-system, 'Segoe UI', Roboto, sans-serif" text-anchor="end" letter-spacing="0.6">CREATE</text></g><g transform="translate(18,140)"><rect width="212" height="66" rx="12" fill="#1b2435" stroke="#2b3852" filter="url(#card)"/><rect x="10" y="14" width="4" height="38" rx="2" fill="#34d399"/><g transform="translate(14,21) scale(1)" fill="none" stroke="#22d3ee" stroke-width="1.7" stroke-linecap="round" stroke-linejoin="round"><circle cx='6' cy='12' r='2'/><circle cx='18' cy='6' r='2'/><circle cx='18' cy='12' r='2'/><circle cx='18' cy='18' r='2'/><path d='M8 12 H13 M16 6 H13 V18 H16 M13 12 H16'/></g><text x="46" y="29" font-size="14" font-weight="650" fill="#e6edf6" font-family="ui-sans-serif, -apple-system, 'Segoe UI', Roboto, sans-serif" text-anchor="start" letter-spacing="0">app</text><text x="46" y="48" font-size="11" font-weight="500" fill="#94a3b8" font-family="ui-monospace, 'SF Mono', 'JetBrains Mono', Menlo, monospace" text-anchor="start" letter-spacing="0">aws_lb</text><text x="178" y="29" font-size="10" font-weight="700" fill="#34d399" font-family="ui-sans-serif, -apple-system, 'Segoe UI', Roboto, sans-serif" text-anchor="end" letter-spacing="0.6">CREATE</text><g transform="translate(185,17)"><path d="M7 0 L13 2.5 V7 Q13 11.5 7 14 Q1 11.5 1 7 V2.5 Z" fill="#94a3b8" fill-opacity="0.14" stroke="#94a3b8" stroke-width="1"/></g></g><g transform="translate(252,140)"><rect width="212" height="66" rx="12" fill="#1b2435" stroke="#2b3852" filter="url(#card)"/><rect x="10" y="14" width="4" height="38" rx="2" fill="#34d399"/><g transform="translate(14,21) scale(1)" fill="none" stroke="#a78bfa" stroke-width="1.7" stroke-linecap="round" stroke-linejoin="round"><rect x='4' y='5.5' width='16' height='5.5' rx='1.4'/><rect x='4' y='13' width='16' height='5.5' rx='1.4'/><path d='M7 8.2 H7.01 M7 15.8 H7.01'/></g><text x="46" y="29" font-size="14" font-weight="650" fill="#e6edf6" font-family="ui-sans-serif, -apple-system, 'Segoe UI', Roboto, sans-serif" text-anchor="start" letter-spacing="0">web</text><text x="46" y="48" font-size="11" font-weight="500" fill="#94a3b8" font-family="ui-monospace, 'SF Mono', 'JetBrains Mono', Menlo, monospace" text-anchor="start" letter-spacing="0">aws_instance</text><text x="178" y="29" font-size="10" font-weight="700" fill="#34d399" font-family="ui-sans-serif, -apple-system, 'Segoe UI', Roboto, sans-serif" text-anchor="end" letter-spacing="0.6">CREATE</text><g transform="translate(185,17)"><path d="M7 0 L13 2.5 V7 Q13 11.5 7 14 Q1 11.5 1 7 V2.5 Z" fill="#94a3b8" fill-opacity="0.14" stroke="#94a3b8" stroke-width="1"/></g></g></g><g transform="translate(18,298)"><rect width="248" height="136" rx="12" fill="#1b2435" stroke="#2b3852" filter="url(#card)"/><path d="M0 12 Q0 0 12 0 H236 Q248 0 248 12 V42 H0 Z" fill="#22d3ee" fill-opacity="0.16"/><rect x="10" y="11" width="4" height="20" rx="2" fill="#34d399"/><g transform="translate(16,10) scale(0.9166666666666666)" fill="none" stroke="#22d3ee" stroke-width="1.7" stroke-linecap="round" stroke-linejoin="round"><rect x='5' y='5' width='14' height='14' rx='2'/><path d='M5 12 H19 M12 5 V19'/></g><text x="42" y="25" font-size="13" font-weight="650" fill="#e6edf6" font-family="ui-sans-serif, -apple-system, 'Segoe UI', Roboto, sans-serif" text-anchor="start" letter-spacing="0">private</text><text x="232" y="25" font-size="11" font-weight="500" fill="#94a3b8" font-family="ui-monospace, 'SF Mono', 'JetBrains Mono', Menlo, monospace" text-anchor="end" letter-spacing="0">aws_subnet</text><g transform="translate(18,52)"><rect width="212" height="66" rx="12" fill="#1b2435" stroke="#2b3852" filter="url(#card)"/><rect x="10" y="14" width="4" height="38" rx="2" fill="#34d399"/><g transform="translate(14,21) scale(1)" fill="none" stroke="#a78bfa" stroke-width="1.7" stroke-linecap="round" stroke-linejoin="round"><rect x='4' y='5.5' width='16' height='5.5' rx='1.4'/><rect x='4' y='13' width='16' height='5.5' rx='1.4'/><path d='M7 8.2 H7.01 M7 15.8 H7.01'/></g><text x="46" y="29" font-size="14" font-weight="650" fill="#e6edf6" font-family="ui-sans-serif, -apple-system, 'Segoe UI', Roboto, sans-serif" text-anchor="start" letter-spacing="0">api</text><text x="46" y="48" font-size="11" font-weight="500" fill="#94a3b8" font-family="ui-monospace, 'SF Mono', 'JetBrains Mono', Menlo, monospace" text-anchor="start" letter-spacing="0">aws_instance</text><text x="178" y="29" font-size="10" font-weight="700" fill="#34d399" font-family="ui-sans-serif, -apple-system, 'Segoe UI', Roboto, sans-serif" text-anchor="end" letter-spacing="0.6">CREATE</text><g transform="translate(185,17)"><path d="M7 0 L13 2.5 V7 Q13 11.5 7 14 Q1 11.5 1 7 V2.5 Z" fill="#94a3b8" fill-opacity="0.14" stroke="#94a3b8" stroke-width="1"/></g></g></g><g transform="translate(288,298)"><rect width="212" height="66" rx="12" fill="#1b2435" stroke="#2b3852" filter="url(#card)"/><rect x="10" y="14" width="4" height="38" rx="2" fill="#34d399"/><g transform="translate(14,21) scale(1)" fill="none" stroke="#818cf8" stroke-width="1.7" stroke-linecap="round" stroke-linejoin="round"><ellipse cx='12' cy='6' rx='7' ry='2.6'/><path d='M5 6 V18 C5 19.4 8.1 20.6 12 20.6 C15.9 20.6 19 19.4 19 18 V6'/><path d='M5 12 C5 13.4 8.1 14.6 12 14.6 C15.9 14.6 19 13.4 19 12'/></g><text x="46" y="29" font-size="14" font-weight="650" fill="#e6edf6" font-family="ui-sans-serif, -apple-system, 'Segoe UI', Roboto, sans-serif" text-anchor="start" letter-spacing="0">main</text><text x="46" y="48" font-size="11" font-weight="500" fill="#94a3b8" font-family="ui-monospace, 'SF Mono', 'JetBrains Mono', Menlo, monospace" text-anchor="start" letter-spacing="0">aws_db_instance</text><text x="178" y="29" font-size="10" font-weight="700" fill="#34d399" font-family="ui-sans-serif, -apple-system, 'Segoe UI', Roboto, sans-serif" text-anchor="end" letter-spacing="0.6">CREATE</text><g transform="translate(185,17)"><path d="M7 0 L13 2.5 V7 Q13 11.5 7 14 Q1 11.5 1 7 V2.5 Z" fill="#94a3b8" fill-opacity="0.14" stroke="#94a3b8" stroke-width="1"/></g></g></g><g transform="translate(792,52)"><rect width="212" height="66" rx="12" fill="#1b2435" stroke="#2b3852" filter="url(#card)"/><rect x="10" y="14" width="4" height="38" rx="2" fill="#34d399"/><g transform="translate(14,21) scale(1)" fill="none" stroke="#2dd4bf" stroke-width="1.7" stroke-linecap="round" stroke-linejoin="round"><path d='M5 7 H19 L17.4 18.5 C17.2 19.8 14.9 20.5 12 20.5 C9.1 20.5 6.8 19.8 6.6 18.5 Z'/><ellipse cx='12' cy='7' rx='7' ry='1.9'/></g><text x="46" y="29" font-size="14" font-weight="650" fill="#e6edf6" font-family="ui-sans-serif, -apple-system, 'Segoe UI', Roboto, sans-serif" text-anchor="start" letter-spacing="0">assets</text><text x="46" y="48" font-size="11" font-weight="500" fill="#94a3b8" font-family="ui-monospace, 'SF Mono', 'JetBrains Mono', Menlo, monospace" text-anchor="start" letter-spacing="0">aws_s3_bucket</text><text x="196" y="29" font-size="10" font-weight="700" fill="#34d399" font-family="ui-sans-serif, -apple-system, 'Segoe UI', Roboto, sans-serif" text-anchor="end" letter-spacing="0.6">CREATE</text></g></g><line x1="24" y1="570" x2="1038" y2="570" stroke="#2b3852"/><rect x="24" y="578" width="4" height="11" rx="2" fill="#34d399"/><text x="36" y="587" font-size="11" font-weight="600" fill="#94a3b8" font-family="ui-sans-serif, -apple-system, 'Segoe UI', Roboto, sans-serif" text-anchor="start" letter-spacing="0">Create</text><rect x="112" y="578" width="4" height="11" rx="2" fill="#fbbf24"/><text x="124" y="587" font-size="11" font-weight="600" fill="#94a3b8" font-family="ui-sans-serif, -apple-system, 'Segoe UI', Roboto, sans-serif" text-anchor="start" letter-spacing="0">Update / Replace</text><rect x="252" y="578" width="4" height="11" rx="2" fill="#f87171"/><text x="264" y="587" font-size="11" font-weight="600" fill="#94a3b8" font-family="ui-sans-serif, -apple-system, 'Segoe UI', Roboto, sans-serif" text-anchor="start" letter-spacing="0">Delete</text><g transform="translate(344,574)"><path d="M7 0 L13 2.5 V7 Q13 11.5 7 14 Q1 11.5 1 7 V2.5 Z" fill="#94a3b8" fill-opacity="0.14" stroke="#94a3b8" stroke-width="1"/></g><text x="364" y="587" font-size="11" font-weight="600" fill="#94a3b8" font-family="ui-sans-serif, -apple-system, 'Segoe UI', Roboto, sans-serif" text-anchor="start" letter-spacing="0">Firewalled</text></svg>